<?xml version="1.0" encoding="UTF-8"?> <svg xmlns="http://www.w3.org/2000/svg" width="192" height="63" viewBox="0 0 192 63" fill="none"><path d="M53.1874 26.5845V23.2873H70.5109V26.5845H63.7999V45H59.8984V26.5845H53.1874ZM70.1986 51.1067V28.7155H73.9728V31.4084H74.1955C74.3934 31.0126 74.6726 30.592 75.033 30.1468C75.3935 29.6944 75.8812 29.3092 76.4961 28.9912C77.111 28.666 77.8955 28.5035 78.8497 28.5035C80.1078 28.5035 81.2422 28.8251 82.2529 29.4682C83.2707 30.1043 84.0764 31.0479 84.6701 32.2989C85.2709 33.5429 85.5713 35.0696 85.5713 36.879C85.5713 38.6671 85.278 40.1867 84.6913 41.4378C84.1047 42.6888 83.306 43.643 82.2953 44.3003C81.2846 44.9576 80.1396 45.2863 78.8603 45.2863C77.9273 45.2863 77.1534 45.1308 76.5385 44.8198C75.9236 44.5088 75.4288 44.1342 75.0542 43.696C74.6867 43.2507 74.4004 42.8301 74.1955 42.4343H74.0364V51.1067H70.1986ZM73.9622 36.8578C73.9622 37.9109 74.1107 38.8332 74.4075 39.6248C74.7114 40.4165 75.1461 41.0349 75.7115 41.4802C76.284 41.9184 76.9767 42.1375 77.7895 42.1375C78.6377 42.1375 79.348 41.9113 79.9205 41.459C80.493 40.9996 80.9241 40.374 81.2139 39.5824C81.5108 38.7838 81.6592 37.8755 81.6592 36.8578C81.6592 35.847 81.5143 34.9494 81.2245 34.1649C80.9347 33.3803 80.5036 32.7654 79.9311 32.3201C79.3586 31.8749 78.6447 31.6522 77.7895 31.6522C76.9696 31.6522 76.2734 31.8678 75.7009 32.2989C75.1284 32.7301 74.6938 33.3344 74.3969 34.1119C74.1071 34.8893 73.9622 35.8046 73.9622 36.8578ZM94.2759 45.3181C92.6432 45.3181 91.2331 44.9788 90.0457 44.3003C88.8654 43.6147 87.9571 42.6464 87.321 41.3954C86.6849 40.1373 86.3669 38.6565 86.3669 36.9532C86.3669 35.2781 86.6849 33.8079 87.321 32.5428C87.9642 31.2706 88.8618 30.281 90.0139 29.5743C91.166 28.8604 92.5195 28.5035 94.0744 28.5035C95.0781 28.5035 96.0252 28.666 96.9157 28.9912C97.8134 29.3092 98.605 29.804 99.2906 30.4754C99.9832 31.1469 100.527 32.0021 100.923 33.0411C101.319 34.073 101.517 35.3028 101.517 36.7305V37.9073H88.1692V35.3205H97.8381C97.831 34.5854 97.672 33.9316 97.361 33.3591C97.05 32.7796 96.6154 32.3237 96.057 31.9915C95.5057 31.6593 94.8625 31.4932 94.1274 31.4932C93.3429 31.4932 92.6538 31.684 92.0601 32.0657C91.4664 32.4403 91.0034 32.9351 90.6712 33.55C90.3461 34.1578 90.18 34.8257 90.1729 35.5537V37.8119C90.1729 38.759 90.3461 39.5718 90.6924 40.2504C91.0388 40.9218 91.5229 41.4378 92.1449 41.7982C92.7669 42.1516 93.4949 42.3283 94.3289 42.3283C94.8872 42.3283 95.3926 42.2506 95.845 42.0951C96.2973 41.9325 96.6896 41.6957 97.0218 41.3848C97.354 41.0738 97.6049 40.6886 97.7745 40.2292L101.358 40.632C101.132 41.5791 100.701 42.4061 100.065 43.1129C99.4355 43.8126 98.6297 44.3568 97.6473 44.7456C96.6648 45.1272 95.541 45.3181 94.2759 45.3181ZM114.157 35.2675V38.4162H105.485V35.2675H114.157ZM106.673 28.7155V45H102.972V28.7155H106.673ZM116.67 28.7155V45H112.981V28.7155H116.67ZM117.32 49.7284V41.8406H118.613C118.96 41.5721 119.249 41.2081 119.483 40.7486C119.716 40.2822 119.907 39.7344 120.055 39.1054C120.211 38.4692 120.338 37.7589 120.437 36.9744C120.536 36.1828 120.624 35.3311 120.702 34.4193L121.168 28.7155H132.936V41.8406H135.46V49.7284H131.749V45H121.094V49.7284H117.32ZM122.557 41.8406H129.268V31.8113H124.497L124.243 34.4193C124.102 36.1439 123.914 37.6211 123.681 38.8509C123.448 40.0807 123.073 41.0773 122.557 41.8406Z" fill="#0062DD"></path><path d="M136.703 23.2873H141.516L147.962 39.0205H148.217L154.663 23.2873H159.476V45H155.702V30.0831H155.5L149.5 44.9364H146.68L140.679 30.0513H140.478V45H136.703V23.2873ZM169.008 45.3181C167.375 45.3181 165.965 44.9788 164.777 44.3003C163.597 43.6147 162.689 42.6464 162.053 41.3954C161.417 40.1373 161.099 38.6565 161.099 36.9532C161.099 35.2781 161.417 33.8079 162.053 32.5428C162.696 31.2706 163.594 30.281 164.746 29.5743C165.898 28.8604 167.251 28.5035 168.806 28.5035C169.81 28.5035 170.757 28.666 171.647 28.9912C172.545 29.3092 173.337 29.804 174.022 30.4754C174.715 31.1469 175.259 32.0021 175.655 33.0411C176.051 34.073 176.249 35.3028 176.249 36.7305V37.9073H162.901V35.3205H172.57C172.563 34.5854 172.404 33.9316 172.093 33.3591C171.782 32.7796 171.347 32.3237 170.789 31.9915C170.237 31.6593 169.594 31.4932 168.859 31.4932C168.075 31.4932 167.386 31.684 166.792 32.0657C166.198 32.4403 165.735 32.9351 165.403 33.55C165.078 34.1578 164.912 34.8257 164.905 35.5537V37.8119C164.905 38.759 165.078 39.5718 165.424 40.2504C165.771 40.9218 166.255 41.4378 166.877 41.7982C167.499 42.1516 168.227 42.3283 169.061 42.3283C169.619 42.3283 170.124 42.2506 170.577 42.0951C171.029 41.9325 171.421 41.6957 171.754 41.3848C172.086 41.0738 172.337 40.6886 172.506 40.2292L176.09 40.632C175.863 41.5791 175.432 42.4061 174.796 43.1129C174.167 43.8126 173.361 44.3568 172.379 44.7456C171.397 45.1272 170.273 45.3181 169.008 45.3181ZM176.347 31.8643V28.7155H190.596V31.8643H185.327V45H181.616V31.8643H176.347Z" fill="black"></path><path d="M7.54102 24.1892C3.76468 28.1472 1.44633 33.5084 1.44629 39.4108C1.44629 51.5908 11.32 61.4645 23.5 61.4645C25.4647 61.4645 27.3687 61.2054 29.1816 60.7233L28.959 62.2722C27.2071 62.6889 25.3795 62.9108 23.5 62.9108C10.5213 62.9108 0 52.3895 0 39.4108C4.77142e-05 31.9349 3.491 25.2745 8.93164 20.9704L7.54102 24.1892ZM28.5693 16.4606C39.1111 18.7786 46.9999 28.1728 47 39.4108C47 47.7668 42.6377 55.1025 36.0674 59.2692L37.4775 56.4685C42.4075 52.4239 45.5537 46.2852 45.5537 39.4108C45.5536 28.8163 38.0829 19.9678 28.1221 17.8435L28.5693 16.4606Z" fill="#0062DD"></path><path d="M33.8446 0.437096C9.98301 14.7902 3.25839 38.9048 7.59685 38.9048C9.33235 35.5787 14.1768 35.904 15.9483 38.4348C17.7198 40.9656 14.0321 47.7625 17.9729 49.8233C21.9137 51.884 25.7098 47.5094 29.6868 49.8233C32.8683 51.6744 32.1211 58.4761 31.3498 61.6456C33.7601 58.5725 38.2552 50.5897 36.9537 43.2433C35.6522 35.8968 33.3745 34.4217 36.9537 29.8663C31.0606 28.6371 31.6752 35.9402 28.566 38.7602C25.0082 41.987 18.1175 43.2794 21.986 33.771C21.6245 21.334 25.0952 12.2956 33.8446 0.437096Z" fill="#0062DD"></path></svg> 